<?xml version="1.0" encoding="UTF-8"?>
<svg version="1.1" xmlns="http://www.w3.org/2000/svg" width="181" height="181">
<path d="M0 0 C38.61 0 77.22 0 117 0 C117.99 21.223125 117.99 21.223125 119 42.875 C119.31324219 49.55145752 119.31324219 49.55145752 119.6328125 56.36279297 C119.88671875 61.84008789 119.88671875 61.84008789 120.00537109 64.41238403 C120.08785487 66.19115085 120.17124268 67.96987589 120.25537109 69.74856567 C120.38335966 72.45842025 120.50838778 75.16839771 120.6328125 77.87841797 C120.67028595 78.65748442 120.7077594 79.43655087 120.74636841 80.23922539 C120.99860106 85.82873601 121.03868729 91.40525664 121 97 C118.36 97 115.72 97 113 97 C113 100.96 113 104.92 113 109 C75.71 109 38.42 109 0 109 C0 73.03 0 37.06 0 0 Z " fill="#C8BB98" transform="translate(29,37)"/>
<path d="M0 0 C19.47 0 38.94 0 59 0 C59.9982637 21.35125617 59.9982637 21.35125617 60.421875 30.48632812 C60.71038955 36.70782029 60.99934794 42.92928952 61.29101562 49.15063477 C61.52626132 54.1690962 61.75946127 59.18764898 61.99127197 64.20627022 C62.0798531 66.11634238 62.16915837 68.0263811 62.25921631 69.9363842 C62.38569388 72.62148434 62.50954369 75.30669425 62.6328125 77.99194336 C62.67021545 78.77310013 62.70761841 79.5542569 62.74615479 80.35908508 C62.98264067 85.58958394 63 90.75161355 63 96 C43.53 96 24.06 96 4 96 C3.20442001 92.02210006 2.793054 88.57243792 2.61108398 84.55517578 C2.55109726 83.26837921 2.49111053 81.98158264 2.42930603 80.65579224 C2.36800314 79.25230911 2.306939 77.84881554 2.24609375 76.4453125 C2.18045338 74.98297277 2.11461824 73.52064177 2.04859924 72.05831909 C1.91073359 68.98348709 1.77580218 65.90854313 1.64282227 62.83349609 C1.4752184 58.96479043 1.29967917 55.09649592 1.12164211 51.22825813 C0.98325906 48.19761873 0.84981104 45.16677512 0.7176075 42.13586044 C0.65498789 40.71459926 0.59088195 39.29340249 0.52502251 37.87228775 C-0.05687325 25.22660056 0 12.6849739 0 0 Z " fill="#E9DBB2" transform="translate(87,37)"/>
<path d="M0 0 C13.86 0 27.72 0 42 0 C42.495 8.724375 42.495 8.724375 43 17.625 C43.15662109 20.36224365 43.15662109 20.36224365 43.31640625 23.15478516 C43.39857054 24.61620346 43.48061004 26.07762879 43.5625 27.5390625 C43.60568359 28.28567139 43.64886719 29.03228027 43.69335938 29.80151367 C43.92039073 33.88402392 44 37.90502176 44 42 C30.14 42 16.28 42 2 42 C1.67 36.369375 1.34 30.73875 1 24.9375 C0.89558594 23.17398193 0.79117188 21.41046387 0.68359375 19.59350586 C0.6014025 18.17562776 0.51936144 16.75774093 0.4375 15.33984375 C0.39431641 14.61994263 0.35113281 13.9000415 0.30664062 13.1583252 C0.26603516 12.44857544 0.22542969 11.73882568 0.18359375 11.00756836 C0.14806396 10.4013414 0.11253418 9.79511444 0.07592773 9.17051697 C-0.03094309 6.11544188 0 3.05694376 0 0 Z " fill="#080808" transform="translate(93,45)"/>
<path d="M0 0 C15.51 0 31.02 0 47 0 C48.125 15.75 48.125 15.75 48.31640625 21.7109375 C48.35830078 22.97421875 48.40019531 24.2375 48.44335938 25.5390625 C48.48267578 26.80492188 48.52199219 28.07078125 48.5625 29.375 C48.60587258 30.7083414 48.64949141 32.04167481 48.69335938 33.375 C48.79797668 36.58326388 48.90015838 39.79158457 49 43 C47.35 43 45.7 43 44 43 C42.85949273 37.33580005 42.66654605 31.69369011 42.4375 25.9375 C42.39431641 24.97650391 42.35113281 24.01550781 42.30664062 23.02539062 C41.99811868 15.66493849 42 8.38218231 42 1 C28.14 1 14.28 1 0 1 C0 0.67 0 0.34 0 0 Z " fill="#C3B795" transform="translate(93,44)"/>
<path d="M0 0 C1.98 0 3.96 0 6 0 C6.33 3.96 6.66 7.92 7 12 C4.69 12 2.38 12 0 12 C0 10.68 0 9.36 0 8 C-6.6 8 -13.2 8 -20 8 C-20 6.68 -20 5.36 -20 4 C-13.4 4 -6.8 4 0 4 C0 2.68 0 1.36 0 0 Z " fill="#C6B996" transform="translate(139,102)"/>
<path d="M0 0 C5.94 0 11.88 0 18 0 C18 0.99 18 1.98 18 3 C12.06 3 6.12 3 0 3 C0 2.01 0 1.02 0 0 Z " fill="#080808" transform="translate(119,107)"/>
</svg>
